<svg data-v-423bf9ae="" xmlns="http://www.w3.org/2000/svg" viewBox="0 0 412.43701166137384 60" class="font"><!----><!----><!----><g data-v-423bf9ae="" id="97a7bd4b-c0bd-499b-bc32-30b131e577f0" fill="white" transform="matrix(6.302521336710863,0,0,6.302521336710863,-4.41176179204075,-49.60084172181101)"><path d="M0.70 17.18L0.70 10.18L2.10 10.18L2.80 10.88L2.80 10.88Q4.03 9.97 5.60 9.97L5.60 9.97L5.60 9.97Q6.58 9.97 7.14 10.39L7.14 10.39L7.14 10.39Q7.70 10.82 7.70 11.58L7.70 11.58L7.70 17.18L4.90 17.18L4.90 12.28L4.05 12.28L4.05 12.28Q3.75 12.28 3.63 12.37L3.63 12.37L3.63 12.37Q3.50 12.46 3.50 12.67L3.50 12.67L3.50 17.18L0.70 17.18ZM12.46 17.39L12.46 17.39Q10.56 17.39 9.65 16.48L9.65 16.48L9.65 16.48Q8.75 15.58 8.75 13.68L8.75 13.68L8.75 13.68Q8.75 11.76 9.65 10.86L9.65 10.86L9.65 10.86Q10.54 9.97 12.46 9.97L12.46 9.97L12.46 9.97Q14.38 9.97 15.27 10.86L15.27 10.86L15.27 10.86Q16.17 11.76 16.17 13.68L16.17 13.68L16.17 13.68Q16.17 15.60 15.27 16.49L15.27 16.49L15.27 16.49Q14.38 17.39 12.46 17.39L12.46 17.39ZM11.76 15.29L12.61 15.29L12.61 15.29Q12.92 15.29 13.04 15.20L13.04 15.20L13.04 15.20Q13.16 15.12 13.16 14.90L13.16 14.90L13.16 12.07L12.31 12.07L12.31 12.07Q12.00 12.07 11.88 12.15L11.88 12.15L11.88 12.15Q11.76 12.24 11.76 12.46L11.76 12.46L11.76 15.29ZM21.34 11.98L20.37 11.98L20.37 15.18L20.37 15.18Q20.78 15.25 21.20 15.27L21.20 15.27L21.07 17.16L21.07 17.16Q20.13 17.39 19.38 17.39L19.38 17.39L19.38 17.39Q18.45 17.39 18.01 17.02L18.01 17.02L18.01 17.02Q17.57 16.65 17.57 15.86L17.57 15.86L17.57 11.98L16.87 11.98L16.87 10.18L17.57 10.18L17.57 9.06L20.37 8.36L20.37 10.18L21.34 10.18L21.34 11.98ZM22.39 8.43L25.19 8.43L25.19 17.18L22.39 17.18L22.39 8.43ZM26.59 17.18L26.59 10.18L27.99 10.18L28.69 10.88L28.69 10.88Q29.92 9.97 31.49 9.97L31.49 9.97L31.49 9.97Q32.47 9.97 33.03 10.39L33.03 10.39L33.03 10.39Q33.59 10.82 33.59 11.58L33.59 11.58L33.59 17.18L30.79 17.18L30.79 12.28L29.93 12.28L29.93 12.28Q29.64 12.28 29.51 12.37L29.51 12.37L29.51 12.37Q29.39 12.46 29.39 12.67L29.39 12.67L29.39 17.18L26.59 17.18ZM39.05 8.08L41.85 7.87L41.85 17.18L40.45 17.18L39.93 16.48L39.93 16.48Q39.20 17.39 37.65 17.39L37.65 17.39L37.65 17.39Q36.08 17.39 35.36 16.50L35.36 16.50L35.36 16.50Q34.64 15.61 34.64 13.68L34.64 13.68L34.64 13.68Q34.64 11.75 35.36 10.86L35.36 10.86L35.36 10.86Q36.08 9.97 37.65 9.97L37.65 9.97L37.65 9.97Q38.44 9.97 39.05 10.21L39.05 10.21L39.05 8.08ZM38.50 15.29L38.50 15.29Q38.81 15.29 38.93 15.20L38.93 15.20L38.93 15.20Q39.05 15.12 39.05 14.90L39.05 14.90L39.05 12.07L38.19 12.07L38.19 12.07Q37.88 12.07 37.77 12.15L37.77 12.15L37.77 12.15Q37.65 12.24 37.65 12.46L37.65 12.46L37.65 15.29L38.50 15.29ZM46.96 15.34L46.96 15.34Q48.12 15.34 49.45 14.98L49.45 14.98L49.78 16.91L49.78 16.91Q48.34 17.39 46.68 17.39L46.68 17.39L46.68 17.39Q44.77 17.39 43.87 16.48L43.87 16.48L43.87 16.48Q42.97 15.58 42.97 13.68L42.97 13.68L42.97 13.68Q42.97 11.76 43.86 10.86L43.86 10.86L43.86 10.86Q44.76 9.97 46.68 9.97L46.68 9.97L46.68 9.97Q47.96 9.97 48.66 10.19L48.66 10.19L48.66 10.19Q49.36 10.40 49.66 10.91L49.66 10.91L49.66 10.91Q49.97 11.42 49.97 12.35L49.97 12.35L49.97 12.35Q49.97 13.20 49.57 13.71L49.57 13.71L49.57 13.71Q49.18 14.21 48.32 14.43L48.32 14.43L48.32 14.43Q47.46 14.66 45.98 14.66L45.98 14.66L45.98 15.29L45.98 15.29Q46.27 15.34 46.96 15.34L46.96 15.34ZM46.94 12.00L46.94 12.00Q46.40 12.00 46.19 12.11L46.19 12.11L46.19 12.11Q45.98 12.22 45.98 12.53L45.98 12.53L45.98 13.26L46.48 13.26L46.48 13.26Q47.03 13.26 47.24 13.13L47.24 13.13L47.24 13.13Q47.45 13.01 47.45 12.67L47.45 12.67L47.45 12.00L46.94 12.00ZM54.94 15.34L54.94 15.34Q56.10 15.34 57.43 14.98L57.43 14.98L57.76 16.91L57.76 16.91Q56.32 17.39 54.66 17.39L54.66 17.39L54.66 17.39Q52.75 17.39 51.85 16.48L51.85 16.48L51.85 16.48Q50.95 15.58 50.95 13.68L50.95 13.68L50.95 13.68Q50.95 11.76 51.84 10.86L51.84 10.86L51.84 10.86Q52.74 9.97 54.66 9.97L54.66 9.97L54.66 9.97Q55.94 9.97 56.64 10.19L56.64 10.19L56.64 10.19Q57.34 10.40 57.64 10.91L57.64 10.91L57.64 10.91Q57.95 11.42 57.95 12.35L57.95 12.35L57.95 12.35Q57.95 13.20 57.55 13.71L57.55 13.71L57.55 13.71Q57.16 14.21 56.30 14.43L56.30 14.43L56.30 14.43Q55.44 14.66 53.96 14.66L53.96 14.66L53.96 15.29L53.96 15.29Q54.25 15.34 54.94 15.34L54.94 15.34ZM54.92 12.00L54.92 12.00Q54.38 12.00 54.17 12.11L54.17 12.11L54.17 12.11Q53.96 12.22 53.96 12.53L53.96 12.53L53.96 13.26L54.46 13.26L54.46 13.26Q55.01 13.26 55.22 13.13L55.22 13.13L55.22 13.13Q55.43 13.01 55.43 12.67L55.43 12.67L55.43 12.00L54.92 12.00ZM63.34 8.08L66.14 7.87L66.14 17.18L64.74 17.18L64.22 16.48L64.22 16.48Q63.49 17.39 61.94 17.39L61.94 17.39L61.94 17.39Q60.37 17.39 59.65 16.50L59.65 16.50L59.65 16.50Q58.93 15.61 58.93 13.68L58.93 13.68L58.93 13.68Q58.93 11.75 59.65 10.86L59.65 10.86L59.65 10.86Q60.37 9.97 61.94 9.97L61.94 9.97L61.94 9.97Q62.73 9.97 63.34 10.21L63.34 10.21L63.34 8.08ZM62.79 15.29L62.79 15.29Q63.10 15.29 63.22 15.20L63.22 15.20L63.22 15.20Q63.34 15.12 63.34 14.90L63.34 14.90L63.34 12.07L62.48 12.07L62.48 12.07Q62.17 12.07 62.05 12.15L62.05 12.15L62.05 12.15Q61.94 12.24 61.94 12.46L61.94 12.46L61.94 15.29L62.79 15.29Z"></path></g><!----><!----></svg>