<svg data-v-423bf9ae="" xmlns="http://www.w3.org/2000/svg" viewBox="0 0 339.915426910301 60" class="font"><!----><!----><!----><g data-v-423bf9ae="" id="d0393e89-b242-49b7-a5df-457cd99107a9" fill="#FFFFFF" transform="matrix(5.071850849539951,0,0,5.071850849539951,-0.2028743353772029,-39.91546512861498)"><path d="M4.56 10.18L7.29 10.18L5.77 16.48L5.77 16.48Q5.47 17.71 5.03 18.40L5.03 18.40L5.03 18.40Q4.58 19.10 3.86 19.40L3.86 19.40L3.86 19.40Q3.14 19.70 1.97 19.70L1.97 19.70L1.97 19.70Q1.04 19.70 0.29 19.47L0.29 19.47L0.42 18.00L2.10 17.79L2.10 17.79Q2.49 17.74 2.69 17.63L2.69 17.63L2.69 17.63Q2.88 17.53 2.99 17.30L2.99 17.30L2.99 17.30Q3.09 17.08 3.18 16.62L3.18 16.62L3.21 16.48L1.57 16.48L0.04 10.18L2.77 10.18L3.60 14.03L3.74 14.03L4.56 10.18ZM11.75 15.34L11.75 15.34Q12.91 15.34 14.24 14.98L14.24 14.98L14.57 16.91L14.57 16.91Q13.13 17.39 11.47 17.39L11.47 17.39L11.47 17.39Q9.56 17.39 8.66 16.48L8.66 16.48L8.66 16.48Q7.76 15.58 7.76 13.68L7.76 13.68L7.76 13.68Q7.76 11.76 8.65 10.86L8.65 10.86L8.65 10.86Q9.55 9.97 11.47 9.97L11.47 9.97L11.47 9.97Q12.75 9.97 13.45 10.19L13.45 10.19L13.45 10.19Q14.15 10.40 14.46 10.91L14.46 10.91L14.46 10.91Q14.76 11.42 14.76 12.35L14.76 12.35L14.76 12.35Q14.76 13.20 14.36 13.71L14.36 13.71L14.36 13.71Q13.97 14.21 13.11 14.43L13.11 14.43L13.11 14.43Q12.25 14.66 10.77 14.66L10.77 14.66L10.77 15.29L10.77 15.29Q11.06 15.34 11.75 15.34L11.75 15.34ZM11.73 12.00L11.73 12.00Q11.19 12.00 10.98 12.11L10.98 12.11L10.98 12.11Q10.77 12.22 10.77 12.53L10.77 12.53L10.77 13.26L11.27 13.26L11.27 13.26Q11.82 13.26 12.03 13.13L12.03 13.13L12.03 13.13Q12.24 13.01 12.24 12.67L12.24 12.67L12.24 12.00L11.73 12.00ZM15.76 12.33L15.76 12.33Q15.76 11.12 16.52 10.54L16.52 10.54L16.52 10.54Q17.28 9.97 18.89 9.97L18.89 9.97L18.89 9.97Q20.50 9.97 21.91 10.28L21.91 10.28L21.59 12.21L21.59 12.21Q20.92 12.03 19.95 12.03L19.95 12.03L19.95 12.03Q19.22 12.03 18.77 12.17L18.77 12.17L18.77 12.67L18.77 12.67Q20.08 12.81 20.83 13.08L20.83 13.08L20.83 13.08Q21.59 13.34 21.92 13.80L21.92 13.80L21.92 13.80Q22.26 14.27 22.26 14.99L22.26 14.99L22.26 14.99Q22.26 16.24 21.41 16.81L21.41 16.81L21.41 16.81Q20.57 17.39 18.73 17.39L18.73 17.39L18.73 17.39Q17.92 17.39 17.10 17.26L17.10 17.26L17.10 17.26Q16.28 17.14 15.67 16.91L15.67 16.91L16.02 14.90L16.02 14.90Q17.01 15.33 18.26 15.33L18.26 15.33L18.26 15.33Q18.61 15.33 19.25 15.22L19.25 15.22L19.25 14.67L19.25 14.67Q17.86 14.53 17.12 14.29L17.12 14.29L17.12 14.29Q16.38 14.04 16.07 13.59L16.07 13.59L16.07 13.59Q15.76 13.13 15.76 12.33L15.76 12.33ZM23.31 8.43L26.11 8.43L26.11 17.18L23.31 17.18L23.31 8.43ZM27.51 17.18L27.51 10.18L28.91 10.18L29.61 10.88L29.61 10.88Q30.84 9.97 32.41 9.97L32.41 9.97L32.41 9.97Q33.39 9.97 33.95 10.39L33.95 10.39L33.95 10.39Q34.51 10.82 34.51 11.58L34.51 11.58L34.51 17.18L31.71 17.18L31.71 12.28L30.86 12.28L30.86 12.28Q30.56 12.28 30.44 12.37L30.44 12.37L30.44 12.37Q30.31 12.46 30.31 12.67L30.31 12.67L30.31 17.18L27.51 17.18ZM39.97 8.08L42.77 7.87L42.77 17.18L41.37 17.18L40.85 16.48L40.85 16.48Q40.12 17.39 38.57 17.39L38.57 17.39L38.57 17.39Q37.00 17.39 36.28 16.50L36.28 16.50L36.28 16.50Q35.56 15.61 35.56 13.68L35.56 13.68L35.56 13.68Q35.56 11.75 36.28 10.86L36.28 10.86L36.28 10.86Q37.00 9.97 38.57 9.97L38.57 9.97L38.57 9.97Q39.37 9.97 39.97 10.21L39.97 10.21L39.97 8.08ZM39.42 15.29L39.42 15.29Q39.73 15.29 39.85 15.20L39.85 15.20L39.85 15.20Q39.97 15.12 39.97 14.90L39.97 14.90L39.97 12.07L39.12 12.07L39.12 12.07Q38.81 12.07 38.69 12.15L38.69 12.15L38.69 12.15Q38.57 12.24 38.57 12.46L38.57 12.46L38.57 15.29L39.42 15.29ZM47.88 15.34L47.88 15.34Q49.04 15.34 50.37 14.98L50.37 14.98L50.71 16.91L50.71 16.91Q49.27 17.39 47.60 17.39L47.60 17.39L47.60 17.39Q45.70 17.39 44.79 16.48L44.79 16.48L44.79 16.48Q43.89 15.58 43.89 13.68L43.89 13.68L43.89 13.68Q43.89 11.76 44.79 10.86L44.79 10.86L44.79 10.86Q45.68 9.97 47.60 9.97L47.60 9.97L47.60 9.97Q48.89 9.97 49.59 10.19L49.59 10.19L49.59 10.19Q50.29 10.40 50.59 10.91L50.59 10.91L50.59 10.91Q50.89 11.42 50.89 12.35L50.89 12.35L50.89 12.35Q50.89 13.20 50.50 13.71L50.50 13.71L50.50 13.71Q50.11 14.21 49.24 14.43L49.24 14.43L49.24 14.43Q48.38 14.66 46.90 14.66L46.90 14.66L46.90 15.29L46.90 15.29Q47.19 15.34 47.88 15.34L47.88 15.34ZM47.87 12.00L47.87 12.00Q47.32 12.00 47.11 12.11L47.11 12.11L47.11 12.11Q46.90 12.22 46.90 12.53L46.90 12.53L46.90 13.26L47.40 13.26L47.40 13.26Q47.95 13.26 48.16 13.13L48.16 13.13L48.16 13.13Q48.37 13.01 48.37 12.67L48.37 12.67L48.37 12.00L47.87 12.00ZM55.86 15.34L55.86 15.34Q57.02 15.34 58.35 14.98L58.35 14.98L58.69 16.91L58.69 16.91Q57.25 17.39 55.58 17.39L55.58 17.39L55.58 17.39Q53.68 17.39 52.77 16.48L52.77 16.48L52.77 16.48Q51.87 15.58 51.87 13.68L51.87 13.68L51.87 13.68Q51.87 11.76 52.77 10.86L52.77 10.86L52.77 10.86Q53.66 9.97 55.58 9.97L55.58 9.97L55.58 9.97Q56.87 9.97 57.57 10.19L57.57 10.19L57.57 10.19Q58.27 10.40 58.57 10.91L58.57 10.91L58.57 10.91Q58.87 11.42 58.87 12.35L58.87 12.35L58.87 12.35Q58.87 13.20 58.48 13.71L58.48 13.71L58.48 13.71Q58.09 14.21 57.23 14.43L57.23 14.43L57.23 14.43Q56.36 14.66 54.88 14.66L54.88 14.66L54.88 15.29L54.88 15.29Q55.17 15.34 55.86 15.34L55.86 15.34ZM55.85 12.00L55.85 12.00Q55.30 12.00 55.09 12.11L55.09 12.11L55.09 12.11Q54.88 12.22 54.88 12.53L54.88 12.53L54.88 13.26L55.38 13.26L55.38 13.26Q55.93 13.26 56.14 13.13L56.14 13.13L56.14 13.13Q56.35 13.01 56.35 12.67L56.35 12.67L56.35 12.00L55.85 12.00ZM64.26 8.08L67.06 7.87L67.06 17.18L65.66 17.18L65.14 16.48L65.14 16.48Q64.41 17.39 62.86 17.39L62.86 17.39L62.86 17.39Q61.29 17.39 60.57 16.50L60.57 16.50L60.57 16.50Q59.85 15.61 59.85 13.68L59.85 13.68L59.85 13.68Q59.85 11.75 60.57 10.86L60.57 10.86L60.57 10.86Q61.29 9.97 62.86 9.97L62.86 9.97L62.86 9.97Q63.66 9.97 64.26 10.21L64.26 10.21L64.26 8.08ZM63.71 15.29L63.71 15.29Q64.02 15.29 64.14 15.20L64.14 15.20L64.14 15.20Q64.26 15.12 64.26 14.90L64.26 14.90L64.26 12.07L63.41 12.07L63.41 12.07Q63.10 12.07 62.98 12.15L62.98 12.15L62.98 12.15Q62.86 12.24 62.86 12.46L62.86 12.46L62.86 15.29L63.71 15.29Z"></path></g><!----><!----></svg>